<svg width="800" height="800" viewBox="0 0 800 800" fill="none" xmlns="http://www.w3.org/2000/svg">
<path d="M104 677.6C104 694.415 117.555 708 134.333 708H437.667C454.445 708 468 694.415 468 677.6V404H104V677.6Z" fill="#DAE5FF"/>
<path d="M438.583 222H134.417C117.592 222 104 235.585 104 252.4V374H469V252.4C469 235.585 455.408 222 438.583 222Z" fill="#7A83FF"/>
<path d="M104 371H468V402H104V371Z" fill="white"/>
<path d="M179 403H398V707H179V403Z" fill="#5194FF"/>
<path d="M738 526.5V709.5C738 726.37 724.408 740 707.583 740H403.417C386.592 740 373 726.37 373 709.5V526.5C373 509.63 386.592 496 403.417 496H707.583C724.408 496 738 509.63 738 526.5Z" fill="#04C86D"/>
<path d="M437.647 496.304H468.126V740H437.647V496.304ZM640.521 496.304H671V740H640.521V496.304ZM110 249.752V291.732C141.241 301.157 188.292 299.824 251.631 258.034C306.112 222.051 382.785 265.935 418.026 242.517C426.979 236.615 433.361 231.38 438.028 227.001H132.954C120.287 226.905 110 237.091 110 249.752Z" fill="white"/>
<path d="M792.286 732.766H738C742.762 726.387 745.619 718.484 745.619 709.915V527.108C745.619 506.066 728.571 489.023 707.524 489.023H625.714C625.714 466.934 607.714 448.939 585.619 448.939H524.667C502.571 448.939 484.571 466.934 484.571 489.023H476.095V404.285C476.095 403.999 476.095 403.618 476 403.332C476 403.047 476.095 402.666 476.095 402.38V250.041C476.095 228.999 459.048 211.956 438 211.956H345.619V68.9477H381.81C386.476 68.9477 390.286 65.1393 390.286 60.4739C390.286 55.8085 386.476 52 381.81 52H195.143C190.476 52 186.667 55.8085 186.667 60.4739C186.667 65.1393 190.476 68.9477 195.143 68.9477H231.333V211.861H133.238C112.19 211.861 95.1429 228.904 95.1429 249.946V402.285C95.1429 402.571 95.1429 402.952 95.2381 403.237C95.2381 403.523 95.1429 403.904 95.1429 404.189V678.4C95.1429 699.442 112.19 716.485 133.238 716.485H154.952C154.095 718.865 153.619 721.531 153.619 724.292C153.619 727.244 154.19 730.1 155.238 732.766H7.61905C3.42857 732.766 0 736.194 0 740.383C0 744.572 3.42857 748 7.61905 748H792.381C796.571 748 800 744.572 800 740.383C800 736.194 796.476 732.766 792.286 732.766ZM707.524 504.257C720.095 504.257 730.381 514.54 730.381 527.108V709.915C730.381 722.483 720.191 732.671 707.714 732.766H678.952V504.257H707.524ZM663.714 504.257V732.766H648.476V504.257H663.714ZM503.81 489.023C503.81 477.503 513.143 468.172 524.667 468.172H585.619C597.143 468.172 606.476 477.503 606.476 489.023H503.81ZM633.238 504.257V732.766H476.095V504.257H633.238ZM402.571 732.766C390.095 732.671 379.905 722.483 379.905 709.915V527.108C379.905 514.54 390.19 504.257 402.762 504.257H430.381V732.766H402.571ZM364.667 527.108V700.108H186.952V411.902H390.095V491.213C375.333 496.45 364.667 510.541 364.667 527.108ZM406 489.023V411.902H460.952V489.023H406ZM445.619 732.766V504.257H460.857V732.766H445.619ZM246.571 68.9477H330.381V211.861H246.571V68.9477ZM110.381 250.041C110.381 237.473 120.667 227.19 133.238 227.19H438C450.571 227.19 460.857 237.473 460.857 250.041V364.295H110.381V250.041ZM110.381 379.529H460.857V394.763H110.381V379.529ZM184 724.292C184 728.482 180.571 731.909 176.381 731.909C172.19 731.909 168.762 728.482 168.762 724.292C168.762 720.103 172.19 716.675 176.381 716.675C180.571 716.675 184 720.103 184 724.292ZM133.238 701.346C120.667 701.346 110.381 691.063 110.381 678.495V411.902H171.048V701.346H133.238ZM197.905 716.58H365.238C366.286 722.578 368.762 728.101 372.286 732.766H197.619C198.667 730.195 199.238 727.339 199.238 724.292C199.238 721.626 198.762 718.96 197.905 716.58Z" fill="#20294B"/>
</svg>
